<svg width="36" height="30" viewBox="0 0 36 30" fill="none" xmlns="http://www.w3.org/2000/svg">
<path fill-rule="evenodd" clip-rule="evenodd" d="M11.7632 29.9102H0.634331C0.439022 29.9102 0.24531 29.8232 0.128883 29.6539C-0.042661 29.4043 -0.0362693 29.0925 0.105919 28.8647L5.65146 20H17.9619L11.7632 29.9102Z" fill="#1C81C1"/>
<path fill-rule="evenodd" clip-rule="evenodd" d="M6.63479 19.8201C6.43948 19.8201 6.24577 19.7333 6.12955 19.5641C5.9578 19.3142 5.96379 19.0026 6.10638 18.775L16.9906 1.37645C17.529 0.515643 18.4276 0 19.389 0H28.9661C29.1622 0 29.3581 0.08674 29.4758 0.256223C29.6489 0.50605 29.6409 0.817634 29.4983 1.04548L17.752 19.8201H6.63479Z" fill="#5CC4CD"/>
<path fill-rule="evenodd" clip-rule="evenodd" d="M29.9587 20L24.6256 28.5271C24.0832 29.3945 23.1778 29.9139 22.2092 29.9139H12.6377C12.3539 29.9139 12.0907 29.7191 12.0206 29.4219C11.9751 29.23 12.0056 29.0288 12.1055 28.8689L17.653 20H29.9587Z" fill="#4E48E0"/>
<path fill-rule="evenodd" clip-rule="evenodd" d="M24.1988 10H35.3276C35.5229 10 35.7166 10.0869 35.833 10.2562C36.0046 10.5059 35.9982 10.8176 35.856 11.0455L30.3105 19.9101H18L24.1988 10Z" fill="#1C81C1"/>
</svg>
